HIERARCHY
ROOT Hips
{
	OFFSET 0.00 0.00 0.00
	CHANNELS 6 Xposition Yposition Zposition Xrotation Yrotation Zrotation
	JOINT Spine
	{
		OFFSET 0.00000 5.19526 0.00000
		CHANNELS 3 Xrotation Yrotation Zrotation
		JOINT Head
		{
			OFFSET 0.00000 15.65388 0.00000
			CHANNELS 3 Xrotation Yrotation Zrotation
			End Site
			{
				OFFSET 0.00000 4.52755 0.00000
			}
		}
		JOINT LeftShoulder
		{
			OFFSET 0.00000 10.32977 0.00000
			CHANNELS 3 Xrotation Yrotation Zrotation
			JOINT LeftArm
			{
				OFFSET 6.99601 0.00000 0.00000
				CHANNELS 3 Xrotation Yrotation Zrotation
				JOINT LeftForeArm
				{
					OFFSET 10.20930 0.00000 0.00000
					CHANNELS 3 Yrotation Zrotation Xrotation
					JOINT LeftHand
					{
						OFFSET 8.56316 0.00000 0.00000
						CHANNELS 3 Xrotation Yrotation Zrotation
						JOINT LeftHandThumb1
						{
							OFFSET 0.00000 0.00000 0.00000
							CHANNELS 3 Xrotation Zrotation Yrotation
							End Site
							{
								OFFSET 0.00000 0.00000 3.93700
							}
						}
						End Site
						{
							OFFSET 3.93700 0.00000 0.00000
						}
					}
				}
			}
		}
		JOINT RightShoulder
		{
			OFFSET 0.00000 10.32977 0.00000
			CHANNELS 3 Xrotation Yrotation Zrotation
			JOINT RightArm
			{
				OFFSET -6.99601 0.00000 0.00000
				CHANNELS 3 Xrotation Yrotation Zrotation
				JOINT RightForeArm
				{
					OFFSET -10.20930 0.00000 0.00000
					CHANNELS 3 Yrotation Zrotation Xrotation
					JOINT RightHand
					{
						OFFSET -8.56316 0.00000 0.00000
						CHANNELS 3 Xrotation Yrotation Zrotation
						JOINT RightHandThumb1
						{
							OFFSET 0.00000 0.00000 0.00000
							CHANNELS 3 Xrotation Zrotation Yrotation
							End Site
							{
								OFFSET 0.00000 0.00000 3.93700
							}
						}
						End Site
						{
							OFFSET -3.93700 0.00000 0.00000
						}
					}
				}
			}
		}
	}
	JOINT LeftUpLeg
	{
		OFFSET 3.35136 0.00000 0.00000
		CHANNELS 3 Xrotation Yrotation Zrotation
		JOINT LeftLeg
		{
			OFFSET 0.00000 -16.34683 0.00000
			CHANNELS 3 Xrotation Yrotation Zrotation
			JOINT LeftFoot
			{
				OFFSET 0.00000 -13.95979 0.00000
				CHANNELS 3 Xrotation Yrotation Zrotation
				JOINT LeftToeBase
				{
					OFFSET 0.00000 -1.33694 4.98954
					CHANNELS 3 Xrotation Yrotation Zrotation
					End Site
					{
						OFFSET 0.00000 0.00000 2.95275
					}
				}
			}
		}
	}
	JOINT RightUpLeg
	{
		OFFSET -3.35136 0.00000 0.00000
		CHANNELS 3 Xrotation Yrotation Zrotation
		JOINT RightLeg
		{
			OFFSET 0.00000 -16.34683 0.00000
			CHANNELS 3 Xrotation Yrotation Zrotation
			JOINT RightFoot
			{
				OFFSET 0.00000 -13.95979 0.00000
				CHANNELS 3 Xrotation Yrotation Zrotation
				JOINT RightToeBase
				{
					OFFSET 0.00000 -1.33694 4.98954
					CHANNELS 3 Xrotation Yrotation Zrotation
					End Site
					{
						OFFSET 0.00000 0.00000 2.95275
					}
				}
			}
		}
	}
}
MOTION
Frames: 21
Frame Time: 0.008333
 -6.8614 31.7572 -5.5643 5.5990 3.7960 2.2793 -5.5920 -6.1984 -5.2703 7.4953 11.4078 4.2417 7.5483 20.6153 21.9505 -40.3134 4.6272 -29.5632 -11.2124 0.0000 -30.8662 -1.2173 7.2837 9.5147 33.1476 -0.0000 26.2537 -8.2009 -8.2814 -30.9651 -16.5856 9.7723 38.9190 6.3558 -0.0000 22.4772 4.1482 -13.2715 17.5327 32.8623 0.0000 -24.3270 -1.5302 -3.7263 -1.1682 2.2846 0.0000 -0.0000 -13.7981 23.1483 -9.3691 10.1021 -0.0000 0.0000 0.6234 -4.3439 -2.5170 -2.9405 0.0000 0.0000 -14.2690 -15.1777 -0.5009 4.3988 0.0000 -0.0000
 -6.8641 31.7578 -5.5658 5.6118 3.7793 2.2780 -5.5959 -6.1857 -5.2522 7.5086 11.4064 4.2358 7.5768 20.6208 21.9269 -40.3644 4.6446 -29.5817 -11.2376 0.0000 -30.8405 -1.2200 7.2746 9.5465 33.1476 -0.0000 26.2537 -8.1888 -8.3020 -30.9449 -16.6278 9.7388 38.9719 6.3688 -0.0000 22.5123 4.1356 -13.2554 17.5022 32.8623 0.0000 -24.3270 -1.5519 -3.6729 -1.1611 2.3041 -0.0000 -0.0000 -13.7944 23.1141 -9.3890 10.1215 0.0000 0.0000 0.6046 -4.3313 -2.5117 -2.9369 0.0000 -0.0000 -14.2675 -15.1837 -0.5052 4.4222 0.0000 -0.0000
 -6.8676 31.7584 -5.5671 5.6280 3.7700 2.2751 -5.5983 -6.1877 -5.2381 7.4972 11.4246 4.2506 7.5999 20.6560 21.9061 -40.4528 4.6618 -29.6172 -11.2608 0.0000 -30.7565 -1.2054 7.2224 9.5014 33.1476 -0.0000 26.2537 -8.1788 -8.3234 -30.8994 -16.6502 9.7324 39.0032 6.3875 -0.0000 22.5216 4.1320 -13.2861 17.4506 32.8623 0.0000 -24.3270 -1.5763 -3.6261 -1.1505 2.3199 -0.0000 -0.0000 -13.7874 23.0898 -9.4513 10.1491 -0.0000 -0.0000 0.5804 -4.3421 -2.5047 -2.9286 -0.0000 0.0000 -14.2562 -15.1521 -0.5069 4.4160 -0.0000 -0.0000
 -6.8706 31.7594 -5.5674 5.6407 3.7701 2.2664 -5.6102 -6.1981 -5.2140 7.5304 11.4398 4.2394 7.5964 20.6457 21.9058 -40.4319 4.7055 -29.6472 -11.3428 0.0000 -30.7436 -1.1989 7.2046 9.4738 33.1476 -0.0000 26.2537 -8.1913 -8.3313 -30.8478 -16.5346 9.8151 39.0048 6.4181 -0.0000 22.4371 4.1332 -13.3001 17.4383 32.8623 0.0000 -24.3270 -1.5980 -3.6361 -1.1332 2.3396 0.0000 0.0000 -13.7776 23.0943 -9.4944 10.1138 0.0000 -0.0000 0.5651 -4.3823 -2.4889 -2.9284 -0.0000 0.0000 -14.2467 -15.1328 -0.5003 4.3720 0.0000 0.0000
 -6.8820 31.7602 -5.5698 5.6721 3.7589 2.2210 -5.6241 -6.2019 -5.1744 7.5118 11.4833 4.2775 7.6520 20.6991 21.8903 -40.5073 4.7127 -29.6928 -11.4220 0.0000 -30.7735 -1.2015 7.1833 9.5214 33.1476 -0.0000 26.2537 -8.1793 -8.3611 -30.7767 -16.4898 9.8515 39.0277 6.4624 -0.0000 22.3719 4.1226 -13.2963 17.4007 32.8623 0.0000 -24.3270 -1.6355 -3.5401 -1.0677 2.3528 -0.0000 0.0000 -13.7707 23.0246 -9.5254 10.0697 0.0000 -0.0000 0.6847 -3.8961 -2.4424 -3.2025 -0.0000 0.0000 -14.0887 -15.5366 -0.4837 4.4610 -0.0000 -0.0000
 -6.8882 31.7611 -5.5719 5.6972 3.7585 2.2064 -5.6402 -6.1979 -5.1572 7.5243 11.5062 4.3078 7.7076 20.7329 21.8767 -40.6065 4.7579 -29.7507 -11.5325 0.0000 -30.8128 -1.2055 7.1488 9.5974 33.1476 -0.0000 26.2537 -8.1548 -8.4013 -30.7179 -16.4291 9.9013 39.0582 6.5158 -0.0000 22.3544 4.1289 -13.3302 17.3852 32.8623 0.0000 -24.3270 -1.6769 -3.4989 -1.0422 2.3836 0.0000 0.0000 -13.7675 22.9893 -9.5695 10.1008 -0.0000 0.0000 0.6672 -3.8680 -2.4195 -3.2181 -0.0000 -0.0000 -14.0865 -15.5706 -0.5755 4.5085 0.0000 -0.0000
 -6.8924 31.7626 -5.5750 5.7246 3.7545 2.2087 -5.6580 -6.1924 -5.1541 7.5517 11.5218 4.3097 7.7500 20.7578 21.8679 -40.7607 4.8501 -29.8144 -11.6470 0.0000 -30.8102 -1.2152 7.1180 9.7139 33.1476 -0.0000 26.2537 -8.0996 -8.4395 -30.6359 -16.4992 9.8526 39.0953 6.5384 -0.0000 22.4312 4.1058 -13.3448 17.2759 32.8623 0.0000 -24.3270 -1.7215 -3.4772 -1.0363 2.4084 -0.0000 0.0000 -13.7542 22.9816 -9.6124 10.1206 -0.0000 0.0000 0.6218 -3.8932 -2.4152 -3.2023 0.0000 -0.0000 -14.0608 -15.5283 -0.5080 4.4578 -0.0000 -0.0000
 -6.8980 31.7639 -5.5783 5.7517 3.7412 2.1963 -5.6632 -6.1818 -5.1243 7.5407 11.5340 4.3290 7.7926 20.8066 21.8190 -40.8710 4.8606 -29.8637 -11.7407 0.0000 -30.8242 -1.2166 7.0438 9.8250 33.1476 -0.0000 26.2537 -8.0463 -8.4853 -30.5654 -16.4608 9.8833 39.1156 6.6085 -0.0000 22.4279 4.1277 -13.3756 17.3258 32.8623 0.0000 -24.3270 -1.7685 -3.4473 -1.0157 2.4439 0.0000 0.0000 -13.7584 22.9762 -9.6277 10.1215 -0.0000 0.0000 0.5685 -3.9276 -2.3912 -3.1642 -0.0000 0.0000 -14.0566 -15.5033 -0.4675 4.4380 -0.0000 0.0000
 -6.9022 31.7646 -5.5823 5.7795 3.7353 2.1966 -5.6659 -6.1716 -5.1024 7.5188 11.5659 4.3498 7.8017 20.8382 21.7728 -40.9495 4.8809 -29.9104 -11.8806 0.0000 -30.8112 -1.1960 6.9649 9.7683 33.1476 -0.0000 26.2537 -7.9973 -8.5527 -30.4919 -16.4374 9.9252 39.1540 6.6846 -0.0000 22.4850 4.0858 -13.4176 17.1101 32.8623 0.0000 -24.3270 -1.8216 -3.4218 -1.0110 2.4850 -0.0000 -0.0000 -13.7579 22.9611 -9.6458 10.1475 0.0000 -0.0000 0.5253 -3.9229 -2.3849 -3.1493 0.0000 -0.0000 -14.0697 -15.4870 -0.4976 4.4165 -0.0000 -0.0000
 -6.9069 31.7653 -5.5849 5.7876 3.7280 2.1962 -5.6500 -6.1438 -5.0807 7.5296 11.5831 4.3434 7.8631 20.8842 21.6971 -40.9591 4.7918 -29.9565 -12.0357 0.0000 -31.0281 -1.1982 6.8996 9.8768 33.1476 -0.0000 26.2537 -7.9420 -8.6095 -30.4036 -16.3931 9.9465 39.1672 6.7344 -0.0000 22.4988 4.0685 -13.3691 17.0988 32.8623 0.0000 -24.3270 -1.8500 -3.3981 -1.0025 2.5160 0.0000 -0.0000 -13.7394 22.9548 -9.6809 10.0710 -0.0000 0.0000 0.5025 -3.9348 -2.3770 -3.1320 0.0000 0.0000 -14.0639 -15.4638 -0.5072 4.3884 -0.0000 0.0000
 -6.9128 31.7664 -5.5904 5.8289 3.7226 2.1850 -5.6645 -6.1145 -5.0505 7.5340 11.6048 4.3484 7.8690 20.9128 21.6423 -41.1654 4.8586 -30.0228 -12.2133 0.0000 -30.9091 -1.1855 6.7907 9.9267 33.1476 -0.0000 26.2537 -7.8880 -8.6686 -30.3034 -16.3312 9.9423 39.1972 6.8940 -0.0000 22.5920 4.0905 -13.5100 17.0204 32.8623 0.0000 -24.3270 -1.9225 -3.3702 -0.9844 2.5654 -0.0000 0.0000 -13.7553 22.9473 -9.7137 10.1283 -0.0000 0.0000 0.4422 -3.9306 -2.3573 -3.1129 0.0000 -0.0000 -14.0628 -15.4742 -0.4884 4.4183 -0.0000 -0.0000
 -6.9182 31.7678 -5.5962 5.8596 3.7160 2.1774 -5.6618 -6.0855 -5.0076 7.5447 11.6220 4.3050 7.9031 20.9740 21.5325 -41.3328 4.8124 -30.0741 -12.3629 0.0000 -30.9297 -1.1450 6.6476 9.7958 33.1476 -0.0000 26.2537 -7.7859 -8.7610 -30.2249 -16.3082 9.9609 39.2525 6.9989 -0.0000 22.6091 4.0631 -13.5192 16.9020 32.8623 0.0000 -24.3270 -1.9813 -3.3623 -0.9719 2.6032 -0.0000 0.0000 -13.7536 22.9559 -9.7062 10.1484 -0.0000 0.0000 0.3849 -3.9341 -2.3421 -3.0805 0.0000 0.0000 -14.0612 -15.4621 -0.5102 4.4196 -0.0000 0.0000
 -6.9243 31.7702 -5.6054 5.9302 3.7159 2.1616 -5.7054 -6.0355 -4.9689 7.5924 11.6093 4.2886 7.9566 21.0439 21.4335 -41.4856 4.7308 -30.1680 -12.5952 0.0000 -30.9760 -1.1783 6.6847 10.0206 33.1476 -0.0000 26.2537 -7.6930 -8.8485 -30.1135 -16.2312 9.9674 39.2957 7.1764 -0.0000 22.6414 4.0420 -13.7296 16.5798 32.8623 0.0000 -24.3270 -2.0980 -3.3713 -0.9526 2.6757 0.0000 0.0000 -13.7155 22.9785 -9.8730 10.0128 -0.0000 -0.0000 0.2774 -3.9191 -2.3208 -3.0347 -0.0000 0.0000 -14.0818 -15.4864 -0.6372 4.4823 -0.0000 -0.0000
 -6.9307 31.7712 -5.6111 5.9558 3.7104 2.1499 -5.6977 -5.9886 -4.9285 7.6060 11.6438 4.2698 7.9562 21.0800 21.3600 -41.6934 4.7571 -30.2420 -12.8497 0.0000 -30.8057 -1.1641 6.7139 9.8599 33.1476 -0.0000 26.2537 -7.6081 -8.9281 -29.9855 -16.1999 9.9101 39.3428 7.3688 -0.0000 22.7471 4.0426 -13.8378 16.4620 32.8623 0.0000 -24.3270 -2.1535 -3.3651 -0.9292 2.7100 -0.0000 -0.0000 -13.7491 22.9702 -9.7691 10.1250 -0.0000 0.0000 0.2299 -3.9180 -2.2989 -3.0141 0.0000 0.0000 -14.0456 -15.4693 -0.5416 4.3815 -0.0000 -0.0000
 -6.9350 31.7725 -5.6172 6.0008 3.7102 2.1510 -5.7105 -5.9348 -4.8894 7.6219 11.6348 4.2669 7.9777 21.1527 21.2577 -41.8702 4.6737 -30.3486 -13.0924 0.0000 -30.7741 -1.1760 6.7489 9.9086 33.1476 -0.0000 26.2537 -7.4864 -9.0600 -29.8528 -16.1313 9.9282 39.3752 7.5824 -0.0000 22.7516 4.0210 -13.9014 16.3091 32.8623 0.0000 -24.3270 -2.2312 -3.3768 -0.9311 2.7630 0.0000 0.0000 -13.7141 23.0135 -9.9009 10.0007 0.0000 -0.0000 0.1564 -3.9250 -2.2943 -2.9808 0.0000 0.0000 -14.0536 -15.4600 -0.5566 4.3859 0.0000 0.0000
 -6.9422 31.7736 -5.6271 6.0391 3.7119 2.1429 -5.6958 -5.8805 -4.8404 7.6089 11.6869 4.2636 7.9385 21.1579 21.2094 -41.8541 4.6238 -30.4389 -13.3961 0.0000 -30.8374 -1.1647 6.7887 9.7592 33.1476 -0.0000 26.2537 -7.3821 -9.1903 -29.7476 -16.0616 9.9266 39.4807 7.8227 -0.0000 22.7402 3.9826 -14.0250 16.0285 32.8623 0.0000 -24.3270 -2.3162 -3.3517 -0.9146 2.8244 -0.0000 0.0000 -13.7109 22.9955 -9.9282 9.9897 -0.0000 0.0000 0.0871 -3.8831 -2.2788 -2.9457 -0.0000 -0.0000 -14.0953 -15.5126 -0.6906 4.5426 0.0000 0.0000
 -6.9498 31.7748 -5.6333 6.0747 3.7299 2.1470 -5.7016 -5.8391 -4.8180 7.6634 11.6739 4.2518 7.9560 21.2041 21.1781 -41.9703 4.6214 -30.5824 -13.7097 0.0000 -30.5482 -1.1305 6.7945 9.4696 33.1476 -0.0000 26.2537 -7.3226 -9.2797 -29.5969 -15.9424 9.8719 39.5629 8.0960 -0.0000 22.7190 3.9458 -14.1046 15.8039 32.8623 0.0000 -24.3270 -2.3818 -3.3515 -0.9083 2.8451 -0.0000 -0.0000 -13.7253 22.9931 -9.8182 10.1067 -0.0000 -0.0000 0.0360 -3.8825 -2.2705 -2.9386 0.0000 0.0000 -14.0639 -15.5193 -0.6226 4.4298 0.0000 0.0000
 -6.9569 31.7755 -5.6395 6.1010 3.7427 2.1481 -5.6981 -5.7856 -4.7714 7.7423 11.6797 4.1769 8.0338 21.2468 21.1048 -41.9849 4.5093 -30.7057 -13.9988 0.0000 -30.5931 -1.1109 6.7754 9.3340 33.1476 -0.0000 26.2537 -7.2145 -9.3827 -29.4673 -15.8116 9.8478 39.6612 8.3596 -0.0000 22.6054 3.9241 -14.2608 15.5605 32.8623 0.0000 -24.3270 -2.4281 -3.3131 -0.9011 2.8564 -0.0000 -0.0000 -13.7009 22.9506 -9.7939 10.1033 0.0000 0.0000 -0.0045 -3.8925 -2.2611 -2.9292 0.0000 -0.0000 -14.0730 -15.5151 -0.6520 4.4499 0.0000 0.0000
 -6.9630 31.7764 -5.6449 6.1079 3.7759 2.1374 -5.6698 -5.7715 -4.6942 7.8076 11.7432 4.0704 8.0672 21.2901 21.0335 -41.8675 4.3562 -30.8428 -14.3235 0.0000 -30.6690 -1.0738 6.7133 9.1091 33.1476 -0.0000 26.2537 -7.1446 -9.4395 -29.3503 -15.7267 9.6662 39.7990 8.6996 -0.0000 22.6821 3.8685 -14.2387 15.3720 32.8623 0.0000 -24.3270 -2.4738 -3.3233 -0.8861 2.9167 0.0000 0.0000 -13.6764 22.9511 -9.9319 9.9602 0.0000 -0.0000 -0.0186 -3.9156 -2.2372 -2.9312 -0.0000 0.0000 -14.0465 -15.5201 -0.5946 4.4048 -0.0000 -0.0000
 -6.9711 31.7771 -5.6500 6.1240 3.7971 2.1374 -5.6553 -5.7583 -4.6418 7.8596 11.7626 4.0381 8.1267 21.3717 20.9728 -41.7465 4.1536 -30.9900 -14.5865 0.0000 -30.8912 -1.0466 6.6905 8.9115 33.1476 -0.0000 26.2537 -7.0155 -9.5381 -29.2015 -15.6994 9.5148 39.9781 9.0607 -0.0000 22.7628 3.8037 -14.2986 15.0667 32.8623 0.0000 -24.3270 -2.5259 -3.3117 -0.8747 2.9560 -0.0000 -0.0000 -13.7057 22.9212 -9.8210 10.0862 0.0000 -0.0000 -0.0419 -3.9243 -2.2229 -2.9307 0.0000 0.0000 -14.0430 -15.5250 -0.6281 4.4099 -0.0000 -0.0000
 -6.9769 31.7768 -5.6541 6.1417 3.8365 2.1541 -5.6579 -5.7413 -4.5893 8.0066 11.8220 3.8539 8.2608 21.4365 20.8810 -41.6759 3.9187 -31.1281 -14.7634 0.0000 -31.1582 -0.9748 6.6140 8.4031 33.1476 -0.0000 26.2537 -6.8885 -9.6317 -29.1029 -15.5501 9.3937 40.2008 9.4751 -0.0000 22.7015 3.7497 -14.4713 14.6957 32.8623 0.0000 -24.3270 -2.5746 -3.3373 -0.8858 2.9896 -0.0000 -0.0000 -13.7099 22.9206 -9.8047 10.1318 -0.0000 0.0000 -0.0590 -3.9572 -2.2320 -2.9439 -0.0000 0.0000 -14.0585 -15.5278 -0.6698 4.4134 -0.0000 0.0000
